<svg width="129" height="129" xmlns="http://www.w3.org/2000/svg" xmlns:xlink="http://www.w3.org/1999/xlink" xml:space="preserve" overflow="hidden"><defs><clipPath id="clip0"><rect x="592" y="312" width="129" height="129"/></clipPath></defs><g clip-path="url(#clip0)" transform="translate(-592 -312)"><path d="M700.844 386.737C700.846 382.878 699.282 379.184 696.51 376.5 700.395 370.045 698.312 361.662 691.856 357.777 691.529 357.58 691.193 357.397 690.85 357.228 692.631 351.254 689.232 344.967 683.258 343.186 683.156 343.156 683.054 343.127 682.952 343.1 682.522 336.545 676.859 331.579 670.304 332.009 664.045 332.42 659.181 337.619 659.188 343.891L659.188 409.946C659.189 414.877 663.187 418.873 668.118 418.871 672.018 418.87 675.465 416.338 676.633 412.617 683.688 414.165 690.661 409.7 692.209 402.645 692.412 401.72 692.514 400.776 692.513 399.829 692.513 399.79 692.513 399.751 692.513 399.711 697.588 397.387 700.843 392.318 700.844 386.737Z" fill="#FFFFFF"/><path d="M618.487 340.545C617.774 340.546 617.09 340.263 616.587 339.758L610.886 334.056C609.819 333.025 609.789 331.324 610.82 330.256 611.852 329.189 613.553 329.159 614.62 330.19 614.643 330.212 614.665 330.234 614.687 330.256L620.387 335.958C621.436 337.007 621.436 338.709 620.386 339.758 619.882 340.262 619.199 340.545 618.487 340.545Z" fill="#FFFFFF"/><path d="M609.212 358.584C608.852 358.584 608.496 358.512 608.165 358.371L599.739 354.808C598.376 354.22 597.747 352.639 598.335 351.276 598.917 349.926 600.475 349.294 601.832 349.857L610.26 353.421C611.627 353.999 612.267 355.576 611.688 356.943 611.268 357.938 610.292 358.584 609.212 358.584Z" fill="#FFFFFF"/><path d="M604.817 378.56 597.375 378.56C595.891 378.56 594.688 377.357 594.688 375.872 594.688 374.388 595.891 373.185 597.375 373.185L604.817 373.185C606.301 373.185 607.504 374.388 607.504 375.872 607.504 377.357 606.301 378.56 604.817 378.56Z" fill="#FFFFFF"/><path d="M598.727 402.954C597.243 402.956 596.038 401.755 596.036 400.271 596.034 399.216 596.649 398.258 597.609 397.821L604.741 394.564C606.091 393.947 607.686 394.541 608.303 395.891 608.92 397.241 608.326 398.836 606.976 399.453L599.842 402.711C599.492 402.871 599.112 402.954 598.727 402.954Z" fill="#FFFFFF"/><path d="M611.951 423.108C610.466 423.108 609.263 421.905 609.262 420.421 609.262 419.708 609.546 419.023 610.051 418.519L615.752 412.819C616.841 411.81 618.541 411.874 619.55 412.963 620.507 413.995 620.505 415.59 619.547 416.62L613.851 422.322C613.347 422.826 612.663 423.109 611.951 423.108Z" fill="#FFFFFF"/><path d="M636.461 362.244C634.617 362.798 633.572 364.742 634.126 366.586 634.68 368.429 636.624 369.475 638.467 368.92 640.311 368.366 641.356 366.423 640.802 364.58 640.25 362.736 638.307 361.69 636.464 362.243 636.463 362.243 636.462 362.244 636.461 362.244Z" fill="#FFFFFF"/><path d="M631.29 382.324C629.446 382.878 628.401 384.822 628.955 386.665 629.509 388.509 631.453 389.554 633.297 389 635.14 388.446 636.185 386.503 635.632 384.659 635.079 382.816 633.136 381.77 631.293 382.323 631.292 382.323 631.291 382.324 631.29 382.324Z" fill="#FFFFFF"/><path d="M641.911 331.988C635.649 331.991 630.461 336.85 630.05 343.098 624.027 344.709 620.451 350.897 622.062 356.919 622.09 357.023 622.119 357.126 622.15 357.228 615.392 360.556 612.612 368.732 615.939 375.489 616.109 375.834 616.293 376.171 616.491 376.5 610.837 381.982 610.696 391.009 616.178 396.664 617.414 397.94 618.878 398.973 620.494 399.711 620.494 399.751 620.494 399.79 620.494 399.829 620.487 407.052 626.336 412.913 633.56 412.921 634.506 412.922 635.45 412.82 636.375 412.617 637.861 417.318 642.876 419.924 647.577 418.438 651.282 417.266 653.804 413.832 653.812 409.946L653.812 343.891C653.813 337.318 648.485 331.989 641.912 331.988 641.912 331.988 641.911 331.988 641.911 331.988ZM641.544 389.326 640.442 391.379 638.158 391.311C637.699 391.78 637.184 392.192 636.625 392.536L636.242 394.791 634.022 395.463 632.455 393.809C631.801 393.823 631.147 393.757 630.509 393.614L628.628 394.92 626.589 393.824 626.642 391.539C626.173 391.081 625.762 390.567 625.418 390.01L623.162 389.618 622.49 387.398 624.163 385.846C624.142 385.189 624.202 384.532 624.34 383.889L623.03 382.009 624.132 379.96 626.427 380.026C626.881 379.554 627.39 379.14 627.944 378.791L628.327 376.536 630.547 375.864 632.116 377.532C632.775 377.515 633.434 377.579 634.077 377.723L635.946 376.406 637.995 377.509 637.927 379.794C638.401 380.251 638.817 380.765 639.166 381.324L641.42 381.706 642.092 383.926 640.419 385.503C640.434 386.157 640.369 386.811 640.224 387.449ZM646.691 369.244 645.589 371.293 643.304 371.224C642.851 371.699 642.341 372.117 641.786 372.469L641.394 374.726 639.174 375.398 637.604 373.731C636.95 373.745 636.296 373.68 635.657 373.536L633.788 374.853 631.739 373.749 631.823 371.439C631.351 370.986 630.937 370.476 630.588 369.922L628.335 369.541 627.663 367.321 629.331 365.75C629.316 365.096 629.38 364.443 629.522 363.804L628.185 361.931 629.304 359.872 631.588 359.941C632.046 359.472 632.56 359.061 633.117 358.717L633.51 356.459 635.73 355.787 637.296 357.442C637.951 357.428 638.604 357.493 639.242 357.636L641.113 356.325 643.162 357.427 643.092 359.723C643.564 360.177 643.979 360.686 644.327 361.24L646.582 361.622 647.254 363.843 645.586 365.413C645.597 366.076 645.526 366.738 645.374 367.384Z" fill="#FFFFFF"/></g></svg>