<svg width="3873" height="1039" xmlns="http://www.w3.org/2000/svg" xmlns:xlink="http://www.w3.org/1999/xlink" xml:space="preserve" overflow="hidden"><defs><clipPath id="clip0"><rect x="249" y="804" width="3873" height="1039"/></clipPath><clipPath id="clip1"><rect x="3018" y="1100" width="395" height="393"/></clipPath><clipPath id="clip2"><rect x="3018" y="1100" width="395" height="393"/></clipPath><clipPath id="clip3"><rect x="3018" y="1100" width="395" height="393"/></clipPath><clipPath id="clip4"><rect x="3776" y="1112" width="346" height="359"/></clipPath><clipPath id="clip5"><rect x="3776" y="1112" width="346" height="359"/></clipPath><clipPath id="clip6"><rect x="3735" y="767" width="705" height="704"/></clipPath></defs><g clip-path="url(#clip0)" transform="translate(-249 -804)"><rect x="251.5" y="1045.5" width="328" height="304" stroke="#000000" stroke-width="4.58333" stroke-miterlimit="8" fill="#F2F2F2"/><rect x="290.5" y="1071.5" width="328" height="304" stroke="#000000" stroke-width="4.58333" stroke-miterlimit="8" fill="#F2F2F2"/><rect x="345.5" y="1126.5" width="328" height="304" stroke="#000000" stroke-width="4.58333" stroke-miterlimit="8" fill="#F2F2F2"/><rect x="918.5" y="1072.5" width="451" height="358" stroke="#2F528F" stroke-width="4.58333" stroke-miterlimit="8" fill="#214ED3"/><text fill="#FFFFFF" font-family="Lato,Lato_MSFontService,sans-serif" font-weight="400" font-size="64" transform="matrix(1 0 0 1 974.239 1276)">Detect Face</text><rect x="1529.5" y="1072.5" width="480" height="358" stroke="#2F528F" stroke-width="4.58333" stroke-miterlimit="8" fill="#214ED3"/><text fill="#FFFFFF" font-family="Lato,Lato_MSFontService,sans-serif" font-weight="400" font-size="64" transform="matrix(1 0 0 1 1634.97 1199)">Structure <tspan font-size="64" x="34.375" y="77">Images</tspan><tspan font-size="64" x="-21.7709" y="154">&amp; Labelling</tspan></text><rect x="2161.5" y="1071.5" width="480" height="359" stroke="#2F528F" stroke-width="4.58333" stroke-miterlimit="8" fill="#214ED3"/><text fill="#FFFFFF" font-family="Lato,Lato_MSFontService,sans-serif" font-weight="400" font-size="64" transform="matrix(1 0 0 1 2298.21 1236)">Extract <tspan font-size="64" x="-22.0459" y="77">Features</tspan></text><g clip-path="url(#clip1)"><g clip-path="url(#clip2)"><g clip-path="url(#clip3)"><path d="M331.594 227.686C331.602 215.931 326.837 204.676 318.391 196.5 330.227 176.834 323.88 151.297 304.214 139.461 303.216 138.86 302.193 138.302 301.148 137.787 306.574 119.587 296.218 100.435 278.018 95.0094 277.708 94.9173 277.397 94.8292 277.085 94.7457 275.775 74.7752 258.523 59.648 238.553 60.9584 219.486 62.2094 204.667 78.0498 204.687 97.1569L204.687 298.393C204.692 313.415 216.872 325.589 231.894 325.584 243.775 325.581 254.278 317.867 257.837 306.532 279.329 311.246 300.573 297.644 305.287 276.152 305.905 273.334 306.216 270.457 306.212 267.572 306.212 267.453 306.212 267.334 306.212 267.211 321.674 260.133 331.59 244.691 331.594 227.686Z" transform="matrix(1.00254 0 0 1 3018 1100)"/><path d="M80.6919 86.9635C78.5197 86.9668 76.4364 86.103 74.9033 84.5646L57.5376 67.1948C54.2852 64.0533 54.1951 58.8702 57.3362 55.6177 60.4778 52.3652 65.6609 52.2751 68.9134 55.4163 68.9817 55.4822 69.0489 55.5493 69.1148 55.6177L86.4804 72.9875C89.6773 76.1855 89.6764 81.3694 86.4788 84.5662 84.9436 86.101 82.8624 86.9631 80.6919 86.9635Z" transform="matrix(1.00254 0 0 1 3018 1100)"/><path d="M52.4368 141.918C51.3413 141.919 50.2565 141.699 49.2478 141.271L23.5759 130.415C19.4236 128.624 17.5088 123.807 19.2992 119.655 21.0718 115.543 25.8183 113.618 29.954 115.333L55.63 126.19C59.7945 127.951 61.7427 132.755 59.9812 136.92 58.699 139.951 55.7274 141.92 52.4368 141.918Z" transform="matrix(1.00254 0 0 1 3018 1100)"/><path d="M39.0462 202.776 16.375 202.776C11.8532 202.776 8.1875 199.11 8.1875 194.588 8.1875 190.066 11.8532 186.401 16.375 186.401L39.0462 186.401C43.5681 186.401 47.2337 190.066 47.2337 194.588 47.2337 199.11 43.5681 202.776 39.0462 202.776Z" transform="matrix(1.00254 0 0 1 3018 1100)"/><path d="M20.4933 277.094C15.9715 277.1 12.3007 273.44 12.2944 268.918 12.2899 265.705 14.1642 262.787 17.0873 261.455L38.8169 251.532C42.9295 249.652 47.7876 251.462 49.6674 255.575 51.5473 259.687 49.7374 264.545 45.6248 266.425L23.8911 276.353C22.8247 276.84 21.6659 277.093 20.4933 277.094Z" transform="matrix(1.00254 0 0 1 3018 1100)"/><path d="M60.7799 338.492C56.2579 338.493 52.5912 334.828 52.5899 330.307 52.5895 328.133 53.4533 326.048 54.9913 324.511L72.3611 307.146C75.677 304.071 80.8573 304.267 83.9317 307.583 86.8468 310.727 86.8423 315.588 83.9219 318.727L66.5685 336.097C65.0341 337.633 62.9512 338.495 60.7799 338.492Z" transform="matrix(1.00254 0 0 1 3018 1100)"/><path d="M135.45 153.069C129.833 154.758 126.649 160.679 128.337 166.296 130.025 171.912 135.946 175.097 141.563 173.409 147.179 171.721 150.364 165.801 148.677 160.184 146.993 154.569 141.075 151.382 135.459 153.067 135.456 153.067 135.453 153.069 135.45 153.069Z" transform="matrix(1.00254 0 0 1 3018 1100)"/><path d="M119.697 214.242C114.081 215.931 110.896 221.852 112.584 227.469 114.272 233.085 120.194 236.27 125.81 234.582 131.426 232.894 134.611 226.973 132.924 221.357 131.24 215.742 125.322 212.555 119.707 214.239 119.704 214.24 119.7 214.241 119.697 214.242Z" transform="matrix(1.00254 0 0 1 3018 1100)"/><path d="M152.054 60.8945C132.976 60.9027 117.173 75.7049 115.919 94.7416 97.5721 99.6496 86.6778 118.501 91.5858 136.847 91.6697 137.162 91.7585 137.475 91.8514 137.787 71.264 147.926 62.7932 172.834 72.9314 193.421 73.4484 194.471 74.0093 195.498 74.6127 196.5 57.3858 213.2 56.9584 240.703 73.658 257.93 77.4251 261.816 81.8848 264.964 86.8079 267.211 86.8079 267.334 86.8079 267.453 86.8079 267.572 86.7854 289.577 104.606 307.434 126.611 307.457 129.496 307.46 132.371 307.149 135.188 306.532 139.715 320.852 154.995 328.792 169.315 324.264 180.604 320.695 188.287 310.233 188.312 298.393L188.312 97.1569C188.315 77.132 172.083 60.897 152.058 60.8945 152.057 60.8945 152.055 60.8945 152.054 60.8945ZM150.937 235.575 147.58 241.83 140.62 241.621C139.221 243.051 137.652 244.305 135.949 245.355L134.783 252.224 128.02 254.271 123.246 249.232C121.254 249.274 119.263 249.075 117.319 248.638L111.587 252.617 105.377 249.277 105.537 242.317C104.11 240.921 102.857 239.357 101.807 237.659L94.934 236.463 92.8872 229.7 97.9839 224.972C97.9217 222.971 98.103 220.969 98.5243 219.011L94.5329 213.284 97.8897 207.041 104.882 207.242C106.264 205.805 107.816 204.542 109.504 203.48L110.67 196.61 117.433 194.564 122.215 199.644C124.222 199.593 126.228 199.788 128.188 200.225L133.882 196.213 140.125 199.574 139.916 206.534C141.362 207.926 142.63 209.493 143.691 211.197L150.56 212.359 152.607 219.122 147.51 223.928C147.555 225.921 147.355 227.911 146.916 229.856ZM166.616 174.394 163.259 180.637 156.299 180.428C154.917 181.875 153.364 183.148 151.673 184.219L150.478 191.096 143.715 193.143 138.934 188.063C136.94 188.107 134.948 187.908 133.002 187.469L127.307 191.481 121.064 188.12 121.322 181.083C119.885 179.701 118.621 178.149 117.56 176.461L110.695 175.298 108.648 168.536 113.728 163.75C113.684 161.758 113.879 159.768 114.31 157.822L110.236 152.116 113.647 145.844 120.606 146.053C122.001 144.624 123.565 143.372 125.265 142.323L126.46 135.446 133.223 133.399 137.996 138.438C139.989 138.396 141.979 138.596 143.924 139.032L149.622 135.036 155.865 138.393 155.653 145.389C157.09 146.771 158.354 148.323 159.415 150.011L166.284 151.174 168.331 157.941 163.251 162.722C163.283 164.743 163.066 166.761 162.604 168.728Z" transform="matrix(1.00254 0 0 1 3018 1100)"/></g></g></g><text font-family="Lato,Lato_MSFontService,sans-serif" font-weight="700" font-size="55" transform="matrix(1 0 0 1 3150.14 1003)">Train <tspan font-size="55" x="-239.181" y="66">Machine Learning Model</tspan></text><g clip-path="url(#clip4)"><g clip-path="url(#clip5)"><g clip-path="url(#clip6)"><path d="M615.171 510.446 642.268 515.572 644.465 503.855C647.395 487.743 637.142 472.364 621.03 469.434L578.554 462.111 555.119 427.69 629.818 29.2939 585.145 29.2939 511.91 418.902 477.49 442.337 435.014 434.282C418.902 431.352 403.523 441.605 400.594 457.717L398.397 469.434 433.549 476.025C432.085 509.713 419.635 581.483 355.188 664.971L396.2 664.971C396.2 664.971 420.367 618.101 437.211 613.707 452.59 610.045 415.241 649.592 426.958 664.971L467.97 664.971C481.884 664.971 503.855 604.918 519.234 613.707 530.219 620.298 500.925 660.577 519.234 664.971L549.992 664.971C574.16 661.309 567.569 600.524 584.413 588.807 595.398 580.751 591.004 664.971 591.004 664.971L642.268 664.971C617.368 604.186 614.439 541.937 615.171 510.446Z" transform="matrix(1.00142 0 0 1 3735.91 767.947)"/><path d="M376.426 432.085C376.426 432.085 377.159 426.958 377.159 424.761 377.159 384.482 300.995 366.173 230.689 366.173 160.384 366.173 84.2199 384.482 84.2199 424.761 84.2199 426.958 84.9522 432.085 84.9522 432.817L90.0787 456.252 85.6846 435.746C53.4613 492.137 47.6025 547.063 77.6288 578.554 88.614 590.271 103.993 596.863 121.57 599.792 125.964 600.524 131.09 600.524 135.484 600.524L135.484 600.524C183.819 600.524 246.068 570.498 297.333 522.163 298.797 520.698 300.262 519.234 301.727 517.769 301.727 517.769 301.727 517.769 301.727 517.769L301.727 517.769C305.389 514.107 309.05 510.446 312.712 506.784 313.444 506.784 314.909 507.516 315.641 507.516 323.697 507.516 330.288 500.925 330.288 492.869 330.288 484.814 323.697 478.222 315.641 478.222 307.586 478.222 300.995 484.814 300.995 492.869 300.995 494.334 300.995 495.799 301.727 497.263 298.065 500.925 294.403 504.587 290.742 508.249 287.812 503.855 286.348 498.728 286.348 492.869 286.348 476.758 299.53 463.575 315.641 463.575 331.753 463.575 344.935 476.758 344.935 492.869 344.935 508.249 333.218 520.698 318.571 522.163 314.177 526.557 310.515 530.951 306.853 533.881 254.124 583.68 188.213 615.171 136.216 615.171 132.555 615.171 128.893 615.171 125.231 614.439L128.893 632.015 128.893 632.015C131.822 655.45 176.496 673.759 231.422 673.759 286.348 673.759 331.021 655.45 333.95 632.015L333.95 632.015 376.426 432.085C376.426 432.085 376.426 432.085 376.426 432.085ZM87.8816 568.301C65.9112 544.866 68.1082 502.39 90.811 457.717L117.908 584.413C106.19 581.483 95.9374 576.357 87.8816 568.301ZM231.422 454.055C154.525 454.055 114.246 432.085 114.246 424.761 114.246 417.438 154.525 395.467 231.422 395.467 308.318 395.467 348.597 417.438 348.597 424.761 348.597 432.085 308.318 454.055 231.422 454.055Z" transform="matrix(1.00142 0 0 1 3735.91 767.947)"/></g></g></g><path d="M739 1277.85 844.239 1277.85 844.239 1280.15 739 1280.15ZM839.656 1265.25 867.155 1279 839.655 1292.75Z"/><path d="M1369 1275.85 1474.24 1275.85 1474.24 1278.15 1369 1278.15ZM1469.66 1263.25 1497.16 1277 1469.66 1290.75Z"/><path d="M2009 1273.85 2114.24 1273.85 2114.24 1276.15 2009 1276.15ZM2109.66 1261.25 2137.16 1275 2109.66 1288.75Z"/><path d="M2658 1273.85 2920.7 1273.85 2920.7 1276.15 2658 1276.15ZM2916.11 1261.25 2943.61 1275 2916.11 1288.75Z"/><path d="M3412 1276.85 3674.7 1276.85 3674.7 1279.15 3412 1279.15ZM3670.11 1264.25 3697.61 1278 3670.11 1291.75Z"/><text font-family="Arial,Arial_MSFontService,sans-serif" font-weight="400" font-size="46" transform="matrix(1 0 0 1 922.695 1530)">►<tspan font-family="Lato,Lato_MSFontService,sans-serif" font-size="46" x="53.8542" y="0">Detect Faces using</tspan><tspan font-family="Lato,Lato_MSFontService,sans-serif" font-style="italic" font-size="46" x="8.59375" y="55">Haar</tspan><tspan font-family="Lato,Lato_MSFontService,sans-serif" font-style="italic" font-size="46" x="111.146" y="55">Cascade Classifier</tspan><tspan font-size="46" x="0" y="110">►</tspan><tspan font-family="Lato,Lato_MSFontService,sans-serif" font-size="46" x="53.8542" y="110">Crop Faces from Images</tspan><tspan font-size="46" x="0" y="165">►</tspan><tspan font-family="Lato,Lato_MSFontService,sans-serif" font-size="46" x="53.8542" y="165">Label Each Image</tspan><tspan font-size="46" x="619.484" y="0">►</tspan><tspan font-family="Lato,Lato_MSFontService,sans-serif" font-size="46" x="673.339" y="0">Unstructured dimension </tspan><tspan font-family="Lato,Lato_MSFontService,sans-serif" font-size="46" x="619.484" y="55">of cropped images to </tspan><tspan font-family="Lato,Lato_MSFontService,sans-serif" font-size="46" x="619.484" y="110">structured image </tspan><tspan font-family="Lato,Lato_MSFontService,sans-serif" font-size="46" x="619.484" y="165">dimension</tspan><tspan font-size="46" x="619.484" y="220">►</tspan><tspan font-family="Lato,Lato_MSFontService,sans-serif" font-size="46" x="673.339" y="220">OpenCV resize module </tspan><tspan font-family="Lato,Lato_MSFontService,sans-serif" font-size="46" x="619.484" y="275">to make structure</tspan><tspan font-size="46" x="1251.05" y="-8">►</tspan><tspan font-family="Lato,Lato_MSFontService,sans-serif" font-size="46" x="1304.9" y="-8">Eigen Faces</tspan><tspan font-size="46" x="1251.05" y="47">►</tspan><tspan font-family="Lato,Lato_MSFontService,sans-serif" font-size="46" x="1304.9" y="47">Use PCA to extract </tspan><tspan font-family="Lato,Lato_MSFontService,sans-serif" font-size="46" x="1251.05" y="102">features from Faces.</tspan><tspan font-family="Lato,Lato_MSFontService,sans-serif" font-weight="700" font-size="55" x="-623.088" y="-550">Images Data</tspan></text><path d="M920 1052C920 1011.68 955.465 979 999.214 979L1701.29 979C1745.03 979 1780.5 946.317 1780.5 906 1780.5 946.317 1815.97 979 1859.71 979L2561.79 979C2605.53 979 2641 1011.68 2641 1052" stroke="#214ED3" stroke-width="2.29167" stroke-miterlimit="8" fill="none" fill-rule="evenodd"/><text font-family="Lato,Lato_MSFontService,sans-serif" font-weight="700" font-size="55" transform="matrix(1 0 0 1 1561.94 875)">Data Pre<tspan font-size="55" x="216.563" y="0">-</tspan><tspan font-size="55" x="236.042" y="0">processing</tspan></text></g></svg>